<?xml version="1.0" encoding="UTF-8"?>
<!DOCTYPE svg PUBLIC "-//W3C//DTD SVG 1.1//EN" "http://www.w3.org/Graphics/SVG/1.1/DTD/svg11.dtd">
<!-- Creator: CorelDRAW X8 -->
<svg xmlns="http://www.w3.org/2000/svg" xml:space="preserve" width="0.673961in" height="0.673961in" version="1.1" style="shape-rendering:geometricPrecision; text-rendering:geometricPrecision; image-rendering:optimizeQuality; fill-rule:evenodd; clip-rule:evenodd"
viewBox="0 0 252 252"
 xmlns:xlink="http://www.w3.org/1999/xlink">
 <defs>
  <style type="text/css">
   <![CDATA[
    .fil0 {fill:#5EDB5E}
    .fil3 {fill:#7C7C7C}
    .fil2 {fill:#A3A3A3}
    .fil1 {fill:white}
   ]]>
  </style>
 </defs>
 <g id="Layer_x0020_1">
  <metadata id="CorelCorpID_0Corel-Layer"/>
  <g id="_2607258907568">
   <path class="fil0" d="M201 181l-35 0 -7 -30 49 0 -7 30zm12 -60l-5 5c1,-1 2,-3 2,-3 2,-2 1,-1 3,-2zm-213 -94c8,7 15,15 23,23l63 62c2,2 4,4 6,6 7,7 16,15 23,22 4,6 26,50 31,60 4,6 15,23 11,30 -12,4 -56,-22 -69,-30 -24,-13 -17,-8 -38,-28l-33 -33c-5,-5 -12,-13 -17,-16l0 129 252 0 0 -178c-3,3 -34,44 -39,47l39 -58 0 -15c-1,2 -25,46 -39,64 -7,9 -14,15 -16,18 -1,2 2,1 -1,2 -3,-4 -1,-1 0,-2 2,-4 6,-11 8,-16 3,-5 5,-9 8,-14 13,-29 29,-69 35,-100l-29 0c-3,24 -7,48 -13,70l-18 65 -9 0c0,-1 0,0 -1,-3 0,0 -1,-1 -1,-2l-3 -12c-1,-6 -2,-11 -4,-16 -10,-34 -18,-66 -22,-102l-29 0c5,24 13,47 22,69 7,16 13,32 22,47 2,4 6,11 7,15 -8,-7 -16,-18 -23,-28 -16,-22 -47,-77 -52,-103l-10 0c5,28 36,72 51,96 7,10 14,19 21,29l-22 -24c-21,-26 -53,-72 -59,-101l-75 0 0 27z"/>
   <path class="fil1" d="M0 48c9,5 29,27 38,37 9,11 59,56 61,62 2,8 -3,13 -11,11 -5,-2 -9,-8 -13,-12l-50 -48c-4,-5 -20,-21 -25,-24l0 49c5,3 12,11 17,16l33 33c21,20 14,15 38,28 13,8 57,34 69,30 4,-7 -7,-24 -11,-30 -5,-10 -27,-54 -31,-60 -7,-7 -16,-15 -23,-22 -2,-2 -4,-4 -6,-6l-63 -62c-8,-8 -15,-16 -23,-23l0 21z"/>
   <path class="fil1" d="M218 0l-71 0c4,36 12,68 22,102 2,5 3,10 4,16l3 12c0,1 1,2 1,2 1,3 1,2 1,3l9 0 18 -65c6,-22 10,-46 13,-70z"/>
   <path class="fil0" d="M0 74c5,3 21,19 25,24l50 48c4,4 8,10 13,12 8,2 13,-3 11,-11 -2,-6 -52,-51 -61,-62 -9,-10 -29,-32 -38,-37l0 26z"/>
   <path class="fil1" d="M118 0l-24 0c5,26 36,81 52,103 7,10 15,21 23,28 -1,-4 -5,-11 -7,-15 -9,-15 -15,-31 -22,-47 -9,-22 -17,-45 -22,-69z"/>
   <path class="fil1" d="M196 130l1 0c2,-3 9,-9 16,-18 14,-18 38,-62 39,-64l0 -48 -5 0c-6,31 -22,71 -35,100 -3,5 -5,9 -8,14 -2,5 -6,12 -8,16z"/>
   <polygon class="fil1" points="166,181 201,181 208,151 159,151 "/>
   <path class="fil1" d="M84 0l-9 0c6,29 38,75 59,101l22 24c-7,-10 -14,-19 -21,-29 -15,-24 -46,-68 -51,-96z"/>
   <path class="fil1" d="M213 121c5,-3 36,-44 39,-47l0 -11 -39 58z"/>
   <path class="fil2" d="M213 121c-2,1 -1,0 -3,2 0,0 -1,2 -2,3l5 -5z"/>
   <path class="fil3" d="M197 130l-1 0c-1,1 -3,-2 0,2 3,-1 0,0 1,-2z"/>
  </g>
 </g>
</svg>
