<?xml version="1.0" encoding="UTF-8"?>
<!DOCTYPE svg PUBLIC "-//W3C//DTD SVG 1.1//EN" "http://www.w3.org/Graphics/SVG/1.1/DTD/svg11.dtd">
<!-- Creator: CorelDRAW X8 -->
<svg xmlns="http://www.w3.org/2000/svg" xml:space="preserve" width="0.595728in" height="0.677043in" version="1.1" style="shape-rendering:geometricPrecision; text-rendering:geometricPrecision; image-rendering:optimizeQuality; fill-rule:evenodd; clip-rule:evenodd"
viewBox="0 0 104 118"
 xmlns:xlink="http://www.w3.org/1999/xlink">
 <defs>
  <style type="text/css">
   <![CDATA[
    .fil0 {fill:#E23500}
    .fil1 {fill:#F24E13}
    .fil2 {fill:#F4F4F4}
   ]]>
  </style>
 </defs>
 <g id="Layer_x0020_1">
  <metadata id="CorelCorpID_0Corel-Layer"/>
  <g id="_2607225124000">
   <path class="fil0" d="M36 48l46 0 -3 40c-25,9 -28,9 -53,0l-2 -20 13 0c1,12 -2,10 10,13 8,2 12,0 20,-2l1 -17 -45 0 -3 -40 65 0 -1 13 -49 0 1 13zm16 70c7,1 34,-9 43,-11l9 -107 -104 0 9 107c10,2 35,11 43,11z"/>
   <polygon class="fil1" points="52,12 93,12 86,97 52,106 "/>
   <path class="fil2" d="M35 35l49 0 1 -13 -65 0 3 40 45 0 -1 17c-8,2 -12,4 -20,2 -12,-3 -9,-1 -10,-13l-13 0 2 20c25,9 28,9 53,0l3 -40 -46 0 -1 -13z"/>
  </g>
 </g>
</svg>
